<svg xmlns="http://www.w3.org/2000/svg" xmlns:xlink="http://www.w3.org/1999/xlink" width="210" height="92" viewBox="0 0 210 92">
  <defs>
    <polygon id="logo-afca-a" points=".264 .109 36.467 .109 36.467 36.089 .264 36.089"/>
    <polygon id="logo-afca-c" points=".264 .109 17.842 .109 17.842 17.579 .264 17.579"/>
  </defs>
  <g fill="none" fill-rule="evenodd">
    <path fill="#002052" d="M103.690962 46.7272562C105.232109 45.1955702 106.003257 43.2149091 106.003257 40.8115041 106.003257 38.4084793 105.232109 36.4540496 103.690962 34.9227438 102.123038 33.4172893 100.210087 32.650876 97.9249508 32.650876 95.6134208 32.650876 93.6997049 33.4172893 92.1321639 34.9227438 90.5642404 36.4540496 89.7938579 38.4084793 89.7938579 40.8115041 89.7938579 43.2149091 90.5642404 45.1955702 92.1321639 46.7272562 93.6997049 48.2589421 95.6134208 49.0249752 97.9249508 49.0249752 100.210087 49.0249752 102.123038 48.2589421 103.690962 46.7272562M89.0758798 53.5671901C87.0034208 52.3263306 85.3563169 50.556281 84.1074098 48.3117851 82.8588852 46.0669091 82.2208525 43.5585785 82.2208525 40.8115041 82.2208525 36.6916529 83.8151694 32.8888595 86.2865902 30.3535372 88.731235 27.8182149 92.2121093 26.233686 95.8521093 26.233686 99.0675191 26.233686 101.778011 27.1844793 103.930415 29.1126777 104.674022 29.7464132 105.205716 29.6673388 105.205716 28.8218512L105.205716 27.977124C105.205716 27.2635537 105.577902 26.8940331 106.295497 26.8940331L111.689322 26.8940331C112.406536 26.8940331 112.778721 27.2635537 112.778721 27.977124L112.778721 53.7781818C112.778721 54.4917521 112.406536 54.8612727 111.689322 54.8612727L106.268339 54.8612727C105.551126 54.8612727 105.179322 54.4917521 105.179322 53.7781818L105.179322 53.1182149C105.179322 52.1944132 104.753585 51.8507438 104.195497 52.3791736 102.017082 54.4122975 99.2270273 55.4421653 95.8521093 55.4421653 93.4074645 55.4421653 91.1487213 54.8084298 89.0758798 53.5671901M122.601098 54.8614628C121.883885 54.8614628 121.511699 54.491562 121.511699 53.7779917L121.511699 33.2323388C121.511699 32.5191488 121.139896 32.1492479 120.422301 32.1492479L118.163175 32.1492479C117.445962 32.1492479 117.074158 31.7797273 117.074158 31.0669174L117.074158 27.9769339C117.074158 27.2637438 117.445962 26.893843 118.163175 26.893843L120.422301 26.893843C121.139896 26.893843 121.511699 26.5239421 121.511699 25.8115124L121.511699 23.6723223C121.511699 17.0699917 124.540825 13.7686364 130.625852 13.7686364 131.927929 13.7686364 133.230005 13.9271653 134.505306 14.2708347 135.116945 14.4023719 135.435579 14.7985041 135.435579 15.4588512L135.435579 18.9978099C135.435579 19.7634628 135.037 20.0809008 134.213066 19.9486033 133.602191 19.8163058 133.070497 19.7372314 132.618366 19.7372314 130.413557 19.7372314 129.137492 21.0047025 129.137492 23.5396446L129.137492 25.8115124C129.137492 26.5239421 129.483284 26.893843 130.20088 26.893843L134.452137 26.893843C135.16935 26.893843 135.541536 27.2637438 135.541536 27.9769339L135.541536 31.0669174C135.541536 31.7797273 135.16935 32.1492479 134.452137 32.1492479L130.20088 32.1492479C129.483284 32.1492479 129.137492 32.5191488 129.137492 33.2323388L129.137492 53.7779917C129.137492 54.491562 128.765306 54.8614628 128.048475 54.8614628L122.601098 54.8614628zM141.026016 51.2168562C138.076454 48.4967736 136.615634 45.0368893 136.615634 40.8645752 136.482137 32.5982612 143.391098 26.2073025 152.000716 26.3662116 156.46465 26.3662116 160.424049 27.9769719 163.267656 30.8027405 163.772191 31.3045587 163.719022 31.8326083 163.160934 32.3344264L159.440989 35.4502612C158.935689 35.8996165 158.431153 35.8471537 157.926235 35.2924926 156.358694 33.6285091 154.392191 32.8096331 151.97394 32.8096331 149.66241 32.8096331 147.722301 33.5490545 146.181536 35.0545091 144.640005 36.5595835 143.86924 38.5140132 143.86924 40.8645752 143.86924 43.214757 144.640005 45.142195 146.181536 46.6484099 147.722301 48.1534843 149.66241 48.8925256 151.97394 48.8925256 154.392191 48.8925256 156.358694 48.0740298 157.926235 46.4104264 158.431153 45.8557653 158.935689 45.8033025 159.440989 46.2515174L163.160934 49.3684926C163.772191 49.8699306 163.825361 50.3455174 163.347219 50.7944926 160.583175 53.6464926 156.491426 55.3367074 152.000716 55.3367074 147.616344 55.3367074 143.949186 53.9631702 141.026016 51.2168562M187.367317 46.7272562C188.908082 45.1955702 189.67923 43.2149091 189.67923 40.8115041 189.67923 38.4084793 188.908082 36.4540496 187.367317 34.9227438 185.799011 33.4172893 183.88606 32.650876 181.600923 32.650876 179.289393 32.650876 177.37606 33.4172893 175.808519 34.9227438 174.240596 36.4540496 173.469831 38.4084793 173.469831 40.8115041 173.469831 43.2149091 174.240596 45.1955702 175.808519 46.7272562 177.37606 48.2589421 179.289393 49.0249752 181.600923 49.0249752 183.88606 49.0249752 185.799011 48.2589421 187.367317 46.7272562M172.752235 53.5671901C170.679776 52.3263306 169.03229 50.556281 167.783765 48.3117851 166.534858 46.0669091 165.896825 43.5585785 165.896825 40.8115041 165.896825 36.6916529 167.491525 32.8888595 169.962563 30.3535372 172.407208 27.8182149 175.888082 26.233686 179.528464 26.233686 182.743492 26.233686 185.453984 27.1844793 187.60677 29.1126777 188.349995 29.7464132 188.881689 29.6673388 188.881689 28.8218512L188.881689 27.977124C188.881689 27.2635537 189.253874 26.8940331 189.971852 26.8940331L195.365678 26.8940331C196.082508 26.8940331 196.454694 27.2635537 196.454694 27.977124L196.454694 53.7781818C196.454694 54.4917521 196.082508 54.8612727 195.365678 54.8612727L189.944311 54.8612727C189.227481 54.8612727 188.855678 54.4917521 188.855678 53.7781818L188.855678 53.1182149C188.855678 52.1944132 188.42994 51.8507438 187.871852 52.3791736 185.693055 54.4122975 182.903 55.4421653 179.528464 55.4421653 177.083437 55.4421653 174.825077 54.8084298 172.752235 53.5671901M64.6631694 54.8707388C69.5172678 54.8707388 73.4521858 50.9599785 73.4521858 46.135681 73.4521858 41.3113835 69.5172678 37.4006231 64.6631694 37.4006231 59.8094536 37.4006231 55.874153 41.3113835 55.874153 46.135681 55.874153 50.9599785 59.8094536 54.8707388 64.6631694 54.8707388"/>
    <path fill="#4AC6E8" d="M27.4136448,91.8904364 C25.1644645,91.8904364 22.9156667,91.038486 21.1989454,89.3326843 C17.7666503,85.9218413 17.7666503,80.3908165 21.1993279,76.9795934 L39.8243005,58.4697256 C43.2562131,55.0585025 48.8210219,55.059643 52.2533169,58.4697256 C55.6852295,61.8809488 55.6852295,67.4115934 52.2525519,70.8228165 L33.6279617,89.3326843 C31.912388,91.038486 29.6624426,91.8904364 27.4136448,91.8904364"/>
    <g transform="translate(18.36 .27)">
      <mask id="logo-afca-b" fill="#fff">
        <use xlink:href="#logo-afca-a"/>
      </mask>
      <path fill="#FFDE4F" d="M27.6777705,36.0894711 C25.4285902,36.0894711 23.1790273,35.2367603 21.463071,33.5313388 L2.83809836,15.0207107 C-0.593814208,11.6091074 -0.593814208,6.07922314 2.83809836,2.66761983 C6.27039344,-0.743603306 11.8355847,-0.743603306 15.2678798,2.66761983 L33.8924699,21.1778678 C37.324765,24.5894711 37.324765,30.1197355 33.8924699,33.5313388 C32.1765137,35.2367603 29.9269508,36.0894711 27.6777705,36.0894711" mask="url(#logo-afca-b)"/>
    </g>
    <path fill="#F9A51A" d="M27.4136448,54.8707388 C25.1644645,54.8707388 22.9149016,54.0172678 21.1989454,52.3118463 L2.57397268,33.8019785 C-0.857939891,30.3903752 -0.857939891,24.8604909 2.57397268,21.4485074 C6.00626776,18.0376645 11.571459,18.0376645 15.0033716,21.4485074 L33.6283443,39.9591355 C37.0602568,43.3707388 37.0602568,48.9010033 33.6283443,52.3118463 C31.912388,54.0172678 29.6628251,54.8707388 27.4136448,54.8707388"/>
    <path fill="#FFCE01" d="M46.0384262,36.3601488 C50.8921421,36.3601488 54.8274426,32.4493884 54.8274426,27.6250909 C54.8274426,22.8011736 50.8921421,18.8904132 46.0384262,18.8904132 C41.1847104,18.8904132 37.2494098,22.8011736 37.2494098,27.6250909 C37.2494098,32.4493884 41.1847104,36.3601488 46.0384262,36.3601488"/>
    <path fill="#F48232" d="M27.4136448,54.8707388 C32.2673607,54.8707388 36.2026612,50.9599785 36.2026612,46.135681 C36.2026612,41.3113835 32.2673607,37.4006231 27.4136448,37.4006231 C22.5595464,37.4006231 18.6246284,41.3113835 18.6246284,46.135681 C18.6246284,50.9599785 22.5595464,54.8707388 27.4136448,54.8707388"/>
    <g transform="translate(18.36 .27)">
      <mask id="logo-afca-d" fill="#fff">
        <use xlink:href="#logo-afca-c"/>
      </mask>
      <path fill="#FFE981" d="M9.05298907,17.578881 C13.9067049,17.578881 17.841623,13.6681207 17.841623,8.84420331 C17.841623,4.01990579 13.9067049,0.109145455 9.05298907,0.109145455 C4.19927322,0.109145455 0.263972678,4.01990579 0.263972678,8.84420331 C0.263972678,13.6681207 4.19927322,17.578881 9.05298907,17.578881" mask="url(#logo-afca-d)"/>
    </g>
    <path fill="#FEC10E" d="M8.78890164,36.3599587 C13.6426175,36.3599587 17.5775355,32.4491983 17.5775355,27.625281 C17.5775355,22.8009835 13.6426175,18.8906033 8.78890164,18.8906033 C3.93518579,18.8906033 0.000267759563,22.8009835 0.000267759563,27.625281 C0.000267759563,32.4491983 3.93518579,36.3599587 8.78890164,36.3599587"/>
    <path fill="#00A4D9" d="M46.0384262,73.3804165 C50.8917596,73.3804165 54.8266776,69.4700364 54.8266776,64.646119 C54.8266776,59.8222017 50.8917596,55.9118215 46.0384262,55.9118215 C41.1850929,55.9118215 37.2501749,59.8222017 37.2501749,64.646119 C37.2501749,69.4700364 41.1850929,73.3804165 46.0384262,73.3804165"/>
    <path fill="#89D4ED" d="M27.4136448,91.8904364 C32.2669781,91.8904364 36.2015137,87.9800562 36.2015137,83.156519 C36.2015137,78.3329818 32.2669781,74.4226017 27.4136448,74.4226017 C22.5603115,74.4226017 18.625776,78.3329818 18.625776,83.156519 C18.625776,87.9800562 22.5603115,91.8904364 27.4136448,91.8904364"/>
    <path fill="#002052" d="M88.8108361 69.9930678C88.9779945 69.9930678 89.0445519 69.8927041 88.9913825 69.7402579L86.9644426 64.6198116C86.8906175 64.4407537 86.750235 64.4407537 86.6764098 64.6198116L84.6563552 69.7402579C84.5955355 69.8927041 84.6693607 69.9930678 84.8300164 69.9930678L88.8108361 69.9930678zM82.521929 73.3708364C82.3612732 73.3708364 82.2939508 73.2712331 82.3547705 73.1180264L86.3015464 63.3238281C86.3485956 63.2105388 86.4289235 63.1576959 86.555918 63.1576959L87.0841694 63.1576959C87.2115464 63.1576959 87.2918743 63.2105388 87.338541 63.3238281L91.2856995 73.1180264C91.3461366 73.2712331 91.2856995 73.3708364 91.1189235 73.3708364L90.6235683 73.3708364C90.5030765 73.3708364 90.4162459 73.3111504 90.3695792 73.1913983L89.5196339 71.0571504C89.4729672 70.9370182 89.3926393 70.8769521 89.2652623 70.8769521L84.3882131 70.8769521C84.2608361 70.8769521 84.1812732 70.9370182 84.1338415 71.0571504L83.2708907 73.1913983C83.224224 73.3111504 83.1438962 73.3708364 83.0165191 73.3708364L82.521929 73.3708364zM94.9265792 73.5036661C94.1034098 73.5036661 93.4343934 73.2843107 92.9191475 72.8459802 92.4042842 72.4061289 92.1499126 71.801286 92.1499126 71.0303107L92.1499126 66.5485421C92.1499126 66.4021785 92.2237377 66.3295669 92.3771257 66.3295669L92.7791475 66.3295669C92.9260328 66.3295669 92.9998579 66.4021785 92.9998579 66.5485421L92.9998579 71.010162C92.9998579 71.548476 93.1804044 71.9544926 93.534612 72.2403769 93.8892022 72.5262612 94.3573989 72.6657818 94.9265792 72.6657818 95.5014973 72.6657818 95.9700765 72.5262612 96.3242842 72.2403769 96.6796393 71.9544926 96.8533005 71.548476 96.8533005 71.010162L96.8533005 66.5485421C96.8533005 66.4021785 96.9267432 66.3295669 97.0740109 66.3295669L97.4817705 66.3295669C97.6294208 66.3295669 97.7032459 66.4021785 97.7032459 66.5485421L97.7032459 71.0303107C97.7032459 71.801286 97.4488743 72.4061289 96.9336284 72.8459802 96.4183825 73.2843107 95.7493661 73.5036661 94.9265792 73.5036661M99.0152295 72.6728149C98.8947377 72.5792942 98.8813497 72.4732281 98.9681803 72.3599388L99.2160492 72.0010628C99.296377 71.8813107 99.4030984 71.8683851 99.5304754 71.9679884 100.045339 72.3865504 100.814956 72.6857405 101.537525 72.6857405 102.494191 72.6857405 103.103536 72.2139554 103.103536 71.4490628 103.103536 71.2095587 103.02971 70.9970463 102.929109 70.8442198 102.828508 70.6910132 102.614683 70.5450298 102.460913 70.4587322 102.300257 70.3720545 101.97206 70.2587653 101.791896 70.1986992 101.704683 70.1724678 101.577689 70.1390132 101.41053 70.0926331 101.202825 70.0333273 101.049437 69.9861868 100.955339 69.9595752 100.861623 69.9329636 100.72124 69.8865835 100.534191 69.8132116 100.339874 69.7402198 100.199492 69.6801537 100.106158 69.6208479 100.011678 69.5604017 99.8984536 69.4809471 99.7645738 69.3809636 99.3965956 69.0954595 99.2562131 68.7297405 99.2225519 68.1575917 99.2225519 67.5592116 99.4566503 67.0805835 99.9183443 66.7281702 100.380038 66.3761372 100.948454 66.1959388 101.617852 66.1959388 102.346923 66.1959388 103.016322 66.4023686 103.618399 66.808005 103.745393 66.8946826 103.765284 66.9939058 103.671951 67.107195L103.411077 67.4398397C103.323863 67.5523686 103.223262 67.5660545 103.095885 67.4862198 102.614683 67.1535752 102.099437 66.987443 101.55053 66.987443 101.122497 66.987443 100.774792 67.0870463 100.50053 67.2866331 100.225885 67.4862198 100.085503 67.7523355 100.085503 68.0849802 100.085503 68.3773273 100.239656 68.6164512 100.413699 68.7692777 100.50053 68.8430298 100.627525 68.9156413 100.801568 68.9890132 100.968727 69.062005 101.115995 69.1216909 101.242989 69.1551455 101.363481 69.1950628 101.537525 69.2479058 101.758235 69.3079719 101.811787 69.3216579 101.851951 69.3345835 101.878727 69.3410463 102.30676 69.4611785 102.480803 69.5212446 102.868672 69.6869967 103.049219 69.7664512 103.203372 69.8531289 103.323863 69.9534926 103.691842 70.2458397 104.019656 70.7039388 103.992497 71.3962198 103.992497 72.047443 103.765284 72.5595256 103.310475 72.9385504 102.855667 73.3175752 102.25359 73.5038562 101.510366 73.5038562 100.540694 73.5038562 99.6310765 73.151443 99.0152295 72.6728149M107.738339 73.3707603C107.163421 73.3707603 106.701344 73.2110909 106.347137 72.8921322 105.992164 72.5724132 105.811617 72.1272397 105.811617 71.5486281L105.811617 67.3329752C105.811617 67.1869917 105.738175 67.1136198 105.590907 67.1136198L104.841945 67.1136198C104.694295 67.1136198 104.620852 67.0406281 104.620852 66.8946446L104.620852 66.5486942C104.620852 66.4023306 104.694295 66.329719 104.841945 66.329719L105.590907 66.329719C105.738175 66.329719 105.811617 66.2559669 105.811617 66.1092231L105.811617 64.6068099C105.811617 64.4539835 105.885443 64.3813719 106.032328 64.3813719L106.460361 64.3813719C106.608011 64.3813719 106.681454 64.4539835 106.681454 64.6068099L106.681454 66.1092231C106.681454 66.2559669 106.754896 66.329719 106.902164 66.329719L108.380962 66.329719C108.52823 66.329719 108.60129 66.4023306 108.60129 66.5486942L108.60129 66.8946446C108.60129 67.0406281 108.52823 67.1136198 108.380962 67.1136198L106.902164 67.1136198C106.754896 67.1136198 106.681454 67.1869917 106.681454 67.3329752L106.681454 71.4558678C106.681454 72.174 107.142765 72.6058678 107.832055 72.6058678L108.380962 72.6058678C108.52823 72.6058678 108.60129 72.6796198 108.60129 72.8320661L108.60129 73.151405C108.60129 73.2977686 108.52823 73.3707603 108.380962 73.3707603L107.738339 73.3707603zM110.014754 73.3707603C109.867104 73.3707603 109.794044 73.2977686 109.794044 73.151405L109.794044 66.5486942C109.794044 66.4023306 109.867104 66.329719 110.014754 66.329719L110.442787 66.329719C110.590055 66.329719 110.663497 66.4023306 110.663497 66.5486942L110.656995 67.166843C110.656995 67.3595868 110.763716 67.4067273 110.904481 67.2531405 111.339399 66.6684463 112.081858 66.3221157 112.944809 66.2692727 113.098962 66.2628099 113.17929 66.329719 113.17929 66.4821653L113.17929 66.8741157C113.17929 67.0140165 113.105464 67.0938512 112.958579 67.107157 111.540219 67.1603802 110.656995 67.891438 110.656995 69.427686L110.656995 73.151405C110.656995 73.2977686 110.583169 73.3707603 110.436667 73.3707603L110.014754 73.3707603zM119.07329 71.8412033C119.621432 71.2895835 119.895694 70.6242942 119.895694 69.846476 119.895694 69.0686579 119.621432 68.4102116 119.07329 67.8582116 118.51788 67.3134347 117.854984 67.040476 117.072743 67.040476 116.289738 67.040476 115.627224 67.3134347 115.078699 67.8582116 114.52329 68.4102116 114.24941 69.0686579 114.24941 69.846476 114.215749 71.3625752 115.546896 72.6992364 117.072743 72.6657818 117.854984 72.6657818 118.524383 72.3932033 119.07329 71.8412033M115.185803 73.0117322C114.630776 72.6859306 114.195858 72.2472198 113.868044 71.6815339 113.539847 71.1166083 113.379574 70.5049223 113.379574 69.846476 113.379574 69.1884099 113.539847 68.5763438 113.868044 68.0114182 114.195858 67.4529554 114.630776 67.0070215 115.185803 66.6816 115.734328 66.3554182 116.329519 66.1957488 116.965257 66.1957488 118.062689 66.1957488 119.005967 66.6546083 119.641705 67.4263438 119.782087 67.5662446 119.895694 67.5327901 119.895694 67.3267405L119.895694 66.5485421C119.895694 66.4021785 119.969137 66.3295669 120.116787 66.3295669L120.54482 66.3295669C120.691705 66.3295669 120.76553 66.4021785 120.76553 66.5485421L120.76553 73.1512529C120.76553 73.2976165 120.691705 73.3706083 120.54482 73.3706083L120.116787 73.3706083C119.969137 73.3706083 119.895694 73.2976165 119.895694 73.1512529L119.895694 72.3734347C119.895694 72.1806909 119.802361 72.1206248 119.675366 72.2472198 119.052634 73.0379636 118.082579 73.5036661 116.965257 73.5036661 116.329519 73.5036661 115.734328 73.3375339 115.185803 73.0117322M122.883508 73.3707603C122.73624 73.3707603 122.66318 73.2977686 122.66318 73.151405L122.66318 63.3769752C122.66318 63.2306116 122.73624 63.1576198 122.883508 63.1576198L123.311923 63.1576198C123.458809 63.1576198 123.532251 63.2306116 123.532251 63.3769752L123.532251 73.151405C123.532251 73.2977686 123.458809 73.3707603 123.311923 73.3707603L122.883508 73.3707603zM125.650727 73.3707603C125.503077 73.3707603 125.430016 73.2977686 125.430016 73.151405L125.430016 66.5486942C125.430016 66.4023306 125.503077 66.329719 125.650727 66.329719L126.07876 66.329719C126.225645 66.329719 126.29947 66.4023306 126.29947 66.5486942L126.29947 73.151405C126.29947 73.2977686 126.225645 73.3707603 126.07876 73.3707603L125.650727 73.3707603zM125.182148 63.696314C125.182148 63.3237521 125.496574 63.024562 125.864934 63.024562 126.232913 63.024562 126.540454 63.3237521 126.540454 63.696314 126.540454 63.8753719 126.473131 64.0350413 126.339634 64.1616364 125.958268 64.6003471 125.155372 64.2612397 125.182148 63.696314zM133.494514 71.8412033C134.042656 71.2895835 134.316918 70.6242942 134.316918 69.846476 134.316918 69.0686579 134.042656 68.4102116 133.494514 67.8582116 132.939104 67.3134347 132.276208 67.040476 131.493967 67.040476 130.710962 67.040476 130.048448 67.3134347 129.499923 67.8582116 128.944514 68.4102116 128.670634 69.0686579 128.670634 69.846476 128.636973 71.3625752 129.96812 72.6992364 131.493967 72.6657818 132.276208 72.6657818 132.945607 72.3932033 133.494514 71.8412033M129.60741 73.0117322C129.052 72.6859306 128.617082 72.2472198 128.289268 71.6815339 127.961071 71.1166083 127.800798 70.5049223 127.800798 69.846476 127.800798 69.1884099 127.961071 68.5763438 128.289268 68.0114182 128.617082 67.4529554 129.052 67.0070215 129.60741 66.6816 130.155552 66.3554182 130.750743 66.1957488 131.386481 66.1957488 132.483913 66.1957488 133.427191 66.6546083 134.062929 67.4263438 134.203311 67.5662446 134.316918 67.5327901 134.316918 67.3267405L134.316918 66.5485421C134.316918 66.4021785 134.390361 66.3295669 134.538011 66.3295669L134.966044 66.3295669C135.112929 66.3295669 135.186754 66.4021785 135.186754 66.5485421L135.186754 73.1512529C135.186754 73.2976165 135.112929 73.3706083 134.966044 73.3706083L134.538011 73.3706083C134.390361 73.3706083 134.316918 73.2976165 134.316918 73.1512529L134.316918 72.3734347C134.316918 72.1806909 134.223585 72.1206248 134.09659 72.2472198 133.473858 73.0379636 132.503803 73.5036661 131.386481 73.5036661 130.750743 73.5036661 130.155552 73.3375339 129.60741 73.0117322M137.460836 73.3707603C137.313186 73.3707603 137.240126 73.2977686 137.240126 73.151405L137.240126 66.5486942C137.240126 66.4023306 137.313186 66.329719 137.460836 66.329719L137.888869 66.329719C138.036137 66.329719 138.109579 66.4023306 138.109579 66.5486942L138.109579 67.0003306C138.109579 67.1938347 138.209798 67.2269091 138.344443 67.0740826 138.811874 66.4882479 139.447612 66.1959008 140.250508 66.1959008 141.046902 66.1959008 141.709033 66.4555537 142.237284 66.980562 142.759798 67.5059504 143.020672 68.2373884 143.020672 69.1680331L143.020672 73.151405C143.020672 73.2977686 142.946847 73.3707603 142.792694 73.3707603L142.371929 73.3707603C142.224279 73.3707603 142.150454 73.2977686 142.150454 73.151405L142.150454 69.2284793C142.150454 68.5035041 141.963404 67.9454215 141.595426 67.5660165 141.227831 67.1869917 140.745863 67.0003306 140.15029 67.0003306 139.568486 67.0003306 139.080016 67.1938347 138.69865 67.5793223 138.310781 67.9716529 138.116464 68.5035041 138.109579 69.174876L138.109579 73.151405C138.109579 73.2977686 138.036137 73.3707603 137.888869 73.3707603L137.460836 73.3707603zM148.778995 73.3707603C148.631727 73.3707603 148.558284 73.2977686 148.558284 73.151405L148.558284 63.3769752C148.558284 63.2306116 148.631727 63.1576198 148.778995 63.1576198L153.870634 63.1576198C154.017902 63.1576198 154.090962 63.2306116 154.090962 63.3769752L154.090962 63.8225289C154.090962 63.9688926 154.017902 64.0418843 153.870634 64.0418843L149.722273 64.0418843C149.575388 64.0418843 149.501563 64.1152562 149.501563 64.2612397L149.501563 67.5987107C149.501563 67.7454545 149.575388 67.8188264 149.722273 67.8188264L153.295333 67.8188264C153.441836 67.8188264 153.516044 67.891438 153.516044 68.0446446L153.516044 68.4837355C153.516044 68.636562 153.441836 68.7091736 153.295333 68.7091736L149.722273 68.7091736C149.575388 68.7091736 149.501563 68.7829256 149.501563 68.9289091L149.501563 73.151405C149.501563 73.2977686 149.427738 73.3707603 149.27435 73.3707603L148.778995 73.3707603zM155.783393 73.3707603C155.635743 73.3707603 155.562683 73.2977686 155.562683 73.151405L155.562683 66.5486942C155.562683 66.4023306 155.635743 66.329719 155.783393 66.329719L156.211426 66.329719C156.358694 66.329719 156.432137 66.4023306 156.432137 66.5486942L156.432137 73.151405C156.432137 73.2977686 156.358694 73.3707603 156.211426 73.3707603L155.783393 73.3707603zM155.314814 63.696314C155.314814 63.3237521 155.62924 63.024562 155.997601 63.024562 156.365579 63.024562 156.67312 63.3237521 156.67312 63.696314 156.67312 63.8753719 156.60618 64.0350413 156.472683 64.1616364 156.091317 64.6003471 155.288038 64.2612397 155.314814 63.696314zM158.708667 73.3707603C158.561016 73.3707603 158.487956 73.2977686 158.487956 73.151405L158.487956 66.5486942C158.487956 66.4023306 158.561016 66.329719 158.708667 66.329719L159.136699 66.329719C159.283585 66.329719 159.35741 66.4023306 159.35741 66.5486942L159.35741 67.0003306C159.35741 67.1938347 159.457628 67.2269091 159.592273 67.0740826 160.059705 66.4882479 160.695443 66.1959008 161.498339 66.1959008 162.294732 66.1959008 162.956863 66.4555537 163.485115 66.980562 164.007628 67.5059504 164.26812 68.2373884 164.26812 69.1680331L164.26812 73.151405C164.26812 73.2977686 164.194678 73.3707603 164.040525 73.3707603L163.619377 73.3707603C163.472109 73.3707603 163.398284 73.2977686 163.398284 73.151405L163.398284 69.2284793C163.398284 68.5035041 163.211235 67.9454215 162.843257 67.5660165 162.475279 67.1869917 161.993694 67.0003306 161.39812 67.0003306 160.815934 67.0003306 160.327464 67.1938347 159.946098 67.5793223 159.558612 67.9716529 159.364295 68.5035041 159.35741 69.174876L159.35741 73.151405C159.35741 73.2977686 159.283585 73.3707603 159.136699 73.3707603L158.708667 73.3707603zM171.360765 71.8412033C171.909672 71.2895835 172.183934 70.6242942 172.183934 69.846476 172.183934 69.0686579 171.909672 68.4102116 171.360765 67.8582116 170.80612 67.3134347 170.143224 67.040476 169.360601 67.040476 168.578361 67.040476 167.915464 67.3134347 167.36694 67.8582116 166.81153 68.4102116 166.53765 69.0686579 166.53765 69.846476 166.503989 71.3625752 167.835137 72.6992364 169.360601 72.6657818 170.143224 72.6657818 170.812623 72.3932033 171.360765 71.8412033M167.474426 73.0117322C166.919016 72.6859306 166.484098 72.2472198 166.156284 71.6815339 165.828087 71.1166083 165.667814 70.5049223 165.667814 69.846476 165.667814 69.1884099 165.828087 68.5763438 166.156284 68.0114182 166.484098 67.4529554 166.919016 67.0070215 167.474426 66.6816 168.022951 66.3554182 168.61776 66.1957488 169.253497 66.1957488 170.350929 66.1957488 171.294208 66.6546083 171.929945 67.4263438 172.070328 67.5662446 172.183934 67.5327901 172.183934 67.3267405L172.183934 66.5485421C172.183934 66.4021785 172.257377 66.3295669 172.404645 66.3295669L172.833443 66.3295669C172.979945 66.3295669 173.05377 66.4021785 173.05377 66.5485421L173.05377 73.1512529C173.05377 73.2976165 172.979945 73.3706083 172.833443 73.3706083L172.404645 73.3706083C172.257377 73.3706083 172.183934 73.2976165 172.183934 73.1512529L172.183934 72.3734347C172.183934 72.1806909 172.090601 72.1206248 171.963607 72.2472198 171.340874 73.0379636 170.37082 73.5036661 169.253497 73.5036661 168.61776 73.5036661 168.022951 73.3375339 167.474426 73.0117322M175.328579 73.3707603C175.180929 73.3707603 175.107869 73.2977686 175.107869 73.151405L175.107869 66.5486942C175.107869 66.4023306 175.180929 66.329719 175.328579 66.329719L175.756612 66.329719C175.903497 66.329719 175.977322 66.4023306 175.977322 66.5486942L175.977322 67.0003306C175.977322 67.1938347 176.077541 67.2269091 176.211803 67.0740826 176.679617 66.4882479 177.314973 66.1959008 178.118251 66.1959008 178.914645 66.1959008 179.576393 66.4555537 180.105027 66.980562 180.627541 67.5059504 180.888033 68.2373884 180.888033 69.1680331L180.888033 73.151405C180.888033 73.2977686 180.81459 73.3707603 180.660055 73.3707603L180.23929 73.3707603C180.091639 73.3707603 180.018197 73.2977686 180.018197 73.151405L180.018197 69.2284793C180.018197 68.5035041 179.831148 67.9454215 179.462787 67.5660165 179.095191 67.1869917 178.613607 67.0003306 178.018033 67.0003306 177.435847 67.0003306 176.947377 67.1938347 176.566011 67.5793223 176.178525 67.9716529 175.983825 68.5035041 175.977322 69.174876L175.977322 73.151405C175.977322 73.2977686 175.903497 73.3707603 175.756612 73.3707603L175.328579 73.3707603zM183.338951 72.4266579C182.676437 71.7750545 182.262175 70.8368066 182.262175 69.846476 182.262175 68.8557653 182.676437 67.9049719 183.338951 67.2533686 184.001082 66.6017653 184.944361 66.1957488 185.954962 66.1957488 187.09906 66.1957488 188.136055 66.6949058 188.831464 67.5396331 188.92518 67.6525421 188.911792 67.7521455 188.791301 67.8517488L188.43059 68.1045587C188.316601 68.2045421 188.216383 68.190476 188.122284 68.0642612 187.607038 67.4195008 186.837421 67.040476 185.954962 67.040476 185.158568 67.040476 184.489934 67.3134347 183.947913 67.8517488 183.405508 68.3969058 183.131628 69.0618149 183.131628 69.846476 183.131628 70.6311372 183.405508 71.2960463 183.947913 71.8347405 184.489934 72.3734347 185.158568 72.6460132 185.954962 72.6460132 186.837421 72.6460132 187.607038 72.2669884 188.122284 71.6222281 188.216383 71.4956331 188.316601 71.4827074 188.43059 71.5819306L188.791301 71.8347405C188.90529 71.9214182 188.92518 72.0210215 188.844852 72.1339306 188.14906 72.9786579 187.09906 73.4907405 185.954962 73.4907405 184.944361 73.4907405 184.001082 73.0782612 183.338951 72.4266579M190.489814 73.3707603C190.342164 73.3707603 190.269104 73.2977686 190.269104 73.151405L190.269104 66.5486942C190.269104 66.4023306 190.342164 66.329719 190.489814 66.329719L190.917847 66.329719C191.065115 66.329719 191.138557 66.4023306 191.138557 66.5486942L191.138557 73.151405C191.138557 73.2977686 191.065115 73.3707603 190.917847 73.3707603L190.489814 73.3707603zM190.021235 63.696314C190.021235 63.3237521 190.336044 63.024562 190.704022 63.024562 191.071617 63.024562 191.379923 63.3237521 191.379923 63.696314 191.379923 63.8753719 191.312601 64.0350413 191.179104 64.1616364 190.797738 64.6003471 189.994459 64.2612397 190.021235 63.696314zM198.330962 71.8412033C198.879104 71.2895835 199.153749 70.6242942 199.153749 69.846476 199.153749 69.0686579 198.879104 68.4102116 198.330962 67.8582116 197.775552 67.3134347 197.112656 67.040476 196.330415 67.040476 195.54741 67.040476 194.884896 67.3134347 194.336372 67.8582116 193.780962 68.4102116 193.507082 69.0686579 193.507082 69.846476 193.473421 71.3625752 194.804568 72.6992364 196.330415 72.6657818 197.112656 72.6657818 197.782055 72.3932033 198.330962 71.8412033M194.443858 73.0117322C193.888448 72.6859306 193.45353 72.2472198 193.125716 71.6815339 192.797519 71.1166083 192.637246 70.5049223 192.637246 69.846476 192.637246 69.1884099 192.797519 68.5763438 193.125716 68.0114182 193.45353 67.4529554 193.888448 67.0070215 194.443858 66.6816 194.992383 66.3554182 195.587191 66.1957488 196.222929 66.1957488 197.320361 66.1957488 198.263639 66.6546083 198.899377 67.4263438 199.040142 67.5662446 199.153749 67.5327901 199.153749 67.3267405L199.153749 66.5485421C199.153749 66.4021785 199.226809 66.3295669 199.374459 66.3295669L199.802874 66.3295669C199.949377 66.3295669 200.023202 66.4021785 200.023202 66.5485421L200.023202 73.1512529C200.023202 73.2976165 199.949377 73.3706083 199.802874 73.3706083L199.374459 73.3706083C199.226809 73.3706083 199.153749 73.2976165 199.153749 73.1512529L199.153749 72.3734347C199.153749 72.1806909 199.060033 72.1206248 198.933038 72.2472198 198.310306 73.0379636 197.340251 73.5036661 196.222929 73.5036661 195.587191 73.5036661 194.992383 73.3375339 194.443858 73.0117322M202.297284 73.3707603C202.149634 73.3707603 202.076574 73.2977686 202.076574 73.151405L202.076574 63.3769752C202.076574 63.2306116 202.149634 63.1576198 202.297284 63.1576198L202.725317 63.1576198C202.872585 63.1576198 202.946027 63.2306116 202.946027 63.3769752L202.946027 73.151405C202.946027 73.2977686 202.872585 73.3707603 202.725317 73.3707603L202.297284 73.3707603zM85.3842787 88.2996612C84.7282678 88.0270826 84.1663552 87.6549008 83.697776 87.1827355 83.2230765 86.7170331 82.8482131 86.1585702 82.5739508 85.5138099 82.300071 84.8690496 82.1589235 84.1839917 82.1589235 83.4723223 82.1589235 82.7610331 82.300071 82.0759752 82.5739508 81.4312149 82.8482131 80.7860744 83.2230765 80.2279917 83.697776 79.7554463 84.1663552 79.290124 84.7282678 78.917562 85.3842787 78.6449835 86.0330219 78.372405 86.7223115 78.2328843 87.438377 78.2328843 88.066847 78.2328843 88.7025847 78.3526364 89.3379399 78.5982231 89.9736776 78.8445702 90.5225847 79.1836777 90.9972842 79.6090826 91.104388 79.7090661 91.104388 79.8155124 90.9972842 79.9219587L90.6495792 80.2743719C90.5489781 80.373595 90.4422568 80.373595 90.3347705 80.2743719 89.5521475 79.5756281 88.488377 79.1639091 87.438377 79.1639091 86.6484863 79.1639091 85.9190328 79.3566529 85.2569016 79.7356777 84.5947705 80.1147025 84.0661366 80.6397107 83.6847705 81.298157 83.2965191 81.955843 83.1025847 82.6811983 83.1025847 83.4723223 83.1025847 84.2638264 83.2965191 84.9888017 83.6847705 85.6464876 84.0661366 86.305314 84.5947705 86.8303223 85.2569016 87.2093471 85.9190328 87.5883719 86.6484863 87.7811157 87.438377 87.7811157 88.488377 87.7811157 89.5521475 87.3754793 90.3347705 86.6638099 90.4357541 86.5710496 90.5420929 86.5710496 90.6495792 86.6706529L90.9972842 87.0230661C91.1108907 87.1295124 91.1108907 87.2355785 90.9972842 87.3359421 90.5225847 87.7613471 89.9736776 88.0939917 89.3379399 88.3391983 88.7025847 88.5923884 88.066847 88.7121405 87.438377 88.7121405 86.7223115 88.7121405 86.0330219 88.5726198 85.3842787 88.2996612M98.2856995 85.0549124C98.2856995 84.2770942 98.0110546 83.6186479 97.4629126 83.0666479 96.9075027 82.5218711 96.2449891 82.2489124 95.4623661 82.2489124 94.6789781 82.2489124 94.016847 82.5218711 93.4683224 83.0666479 92.9129126 83.6186479 92.6390328 84.2770942 92.6390328 85.0549124 92.6390328 85.8327306 92.9129126 86.4980198 93.4618197 87.0496397 94.0103443 87.6016397 94.6789781 87.873838 95.4623661 87.873838 96.9870656 87.9072926 98.3189781 86.5710116 98.2856995 85.0549124M92.8463552 87.641557C92.1838415 86.9903339 91.7691967 86.045243 91.7691967 85.0549124 91.7221475 83.0734909 93.4553169 81.3642678 95.4623661 81.4041851 96.131 81.4041851 96.7533497 81.5638545 97.321765 81.8900364 97.8909454 82.2154579 98.3392514 82.6613917 98.6670656 83.2198545 98.9944973 83.7847802 99.155153 84.3968463 99.155153 85.0549124 99.155153 86.045243 98.7401257 86.9903339 98.078377 87.641557 97.7501803 87.9673587 97.3554262 88.2270116 96.900235 88.4193752 95.5491967 89.0314413 93.8030219 88.6387306 92.8463552 87.641557M100.591224 88.5792347C100.443574 88.5792347 100.370514 88.5058628 100.370514 88.3598793L100.370514 81.7571686C100.370514 81.6104248 100.443574 81.5378132 100.591224 81.5378132L101.019257 81.5378132C101.166142 81.5378132 101.239967 81.6104248 101.239967 81.7571686L101.239967 82.1426562C101.239967 82.3487058 101.340186 82.3753174 101.474448 82.2156479 101.895596 81.6773339 102.484284 81.4043752 103.240514 81.4043752 104.050295 81.4043752 104.739202 81.7434826 105.114066 82.4019289 105.214284 82.5281438 105.301115 82.5349868 105.387945 82.4087719 105.809858 81.7700942 106.505268 81.4043752 107.328055 81.4043752 108.030732 81.4043752 108.606033 81.6309537 109.067727 82.0890529 109.523301 82.5482926 109.750131 83.1135983 109.750131 83.7986562L109.750131 88.3598793C109.750131 88.5058628 109.676689 88.5792347 109.529421 88.5792347L109.101388 88.5792347C108.953738 88.5792347 108.880295 88.5058628 108.880295 88.3598793L108.880295 84.1176149C108.880295 83.4857802 108.726907 83.0200777 108.412098 82.707962 108.097672 82.4019289 107.702918 82.2491025 107.214448 82.2491025 106.706087 82.2491025 106.29106 82.4087719 105.977016 82.7345736 105.655322 83.059995 105.494667 83.5253174 105.494667 84.1236975L105.494667 88.3598793C105.494667 88.5058628 105.421607 88.5792347 105.273956 88.5792347L104.852809 88.5792347C104.699038 88.5792347 104.625213 88.5058628 104.625213 88.3598793L104.625213 84.1176149C104.625213 83.4857802 104.471825 83.0200777 104.157016 82.707962 103.84259 82.4019289 103.448219 82.2491025 102.959366 82.2491025 102.44412 82.2491025 102.029093 82.4087719 101.715049 82.7345736 101.400623 83.059995 101.239967 83.5253174 101.239967 84.1236975L101.239967 88.3598793C101.239967 88.5058628 101.166142 88.5792347 101.019257 88.5792347L100.591224 88.5792347zM117.764022 85.0549124C117.764022 84.2770942 117.48976 83.6186479 116.941235 83.0666479 116.385825 82.5218711 115.723311 82.2489124 114.940689 82.2489124 114.158066 82.2489124 113.495552 82.5218711 112.946645 83.0666479 112.391235 83.6186479 112.116973 84.2770942 112.116973 85.0549124 112.116973 85.8327306 112.391235 86.4980198 112.940142 87.0496397 113.488667 87.6016397 114.158066 87.873838 114.940689 87.873838 116.466153 87.9072926 117.797683 86.5710116 117.764022 85.0549124zM111.46823 91.8902843C111.320962 91.8902843 111.247902 91.8172926 111.247902 91.6648463L111.247902 81.7569785C111.247902 81.6102347 111.320962 81.5376231 111.46823 81.5376231L111.896645 81.5376231C112.04353 81.5376231 112.116973 81.6102347 112.116973 81.7569785L112.116973 82.5347967C112.116973 82.7412264 112.230962 82.7743008 112.371344 82.6344 112.994077 81.8630446 113.950361 81.4041851 115.047792 81.4041851 115.683148 81.4041851 116.278339 81.5638545 116.833749 81.8900364 117.382656 82.2154579 117.817574 82.6613917 118.145388 83.2198545 118.473202 83.7847802 118.633475 84.3968463 118.633475 85.0549124 118.633475 85.7133587 118.473202 86.3250446 118.145388 86.8899702 117.817574 87.455276 117.382656 87.8943669 116.833749 88.2201686 116.278339 88.5459702 115.683148 88.7121025 115.047792 88.7121025 113.950361 88.7121025 112.994077 88.2528628 112.371344 87.4883504 112.230962 87.3359041 112.116973 87.3754413 112.116973 87.5818711L112.116973 91.6648463C112.116973 91.8172926 112.04353 91.8902843 111.896645 91.8902843L111.46823 91.8902843zM120.088213 88.5792347C119.940563 88.5792347 119.867503 88.5058628 119.867503 88.3598793L119.867503 78.5850694C119.867503 78.439086 119.940563 78.365714 120.088213 78.365714L120.516246 78.365714C120.663514 78.365714 120.736956 78.439086 120.736956 78.5850694L120.736956 88.3598793C120.736956 88.5058628 120.663514 88.5792347 120.516246 88.5792347L120.088213 88.5792347zM127.800148 87.0496397C128.348672 86.4980198 128.622934 85.8327306 128.622934 85.0549124 128.622934 84.2770942 128.348672 83.6186479 127.800148 83.0662678 127.24512 82.5218711 126.582224 82.2489124 125.799984 82.2489124 125.016596 82.2489124 124.354464 82.5218711 123.80594 83.0662678 123.250148 83.6186479 122.976268 84.2770942 122.976268 85.0549124 122.942989 86.5710116 124.274137 87.9072926 125.799984 87.873838 126.582224 87.873838 127.25124 87.6016397 127.800148 87.0496397M123.913044 88.2201686C123.357634 87.8943669 122.923098 87.455276 122.594902 86.8899702 122.266705 86.3250446 122.106814 85.7133587 122.106814 85.0549124 122.106814 84.3964661 122.266705 83.7847802 122.594902 83.2198545 122.923098 82.6613917 123.357634 82.2154579 123.913044 81.8900364 124.461568 81.5638545 125.05676 81.4041851 125.692115 81.4041851 126.789546 81.4041851 127.733208 81.8630446 128.368563 82.6344 128.509328 82.7743008 128.622934 82.7412264 128.622934 82.5347967L128.622934 81.7569785C128.622934 81.6102347 128.696377 81.5376231 128.844027 81.5376231L129.27206 81.5376231C129.418563 81.5376231 129.49277 81.6102347 129.49277 81.7569785L129.49277 88.3596893C129.49277 88.5056727 129.418563 88.5790446 129.27206 88.5790446L128.844027 88.5790446C128.696377 88.5790446 128.622934 88.5056727 128.622934 88.3596893L128.622934 87.5818711C128.622934 87.3891273 128.529219 87.3290612 128.402224 87.455276 127.779874 88.2464 126.809437 88.7121025 125.692115 88.7121025 125.05676 88.7121025 124.461568 88.5459702 123.913044 88.2201686M131.456787 88.5792347C131.309137 88.5792347 131.236077 88.5058628 131.236077 88.3598793L131.236077 81.7571686C131.236077 81.6104248 131.309137 81.5378132 131.456787 81.5378132L131.885202 81.5378132C132.032087 81.5378132 132.10553 81.6104248 132.10553 81.7571686L132.10553 88.3598793C132.10553 88.5058628 132.032087 88.5792347 131.885202 88.5792347L131.456787 88.5792347zM130.988208 78.9047884C130.988208 78.5318463 131.303016 78.2326562 131.670995 78.2326562 132.03859 78.2326562 132.346896 78.5318463 132.346896 78.9047884 132.346896 79.0838463 132.279574 79.2435157 132.146077 79.3697306 131.76471 79.8088215 130.961432 79.469714 130.988208 78.9047884zM134.226683 88.5792347C134.079033 88.5792347 134.005973 88.5058628 134.005973 88.3598793L134.005973 81.7571686C134.005973 81.6104248 134.079033 81.5378132 134.226683 81.5378132L134.654716 81.5378132C134.801984 81.5378132 134.875426 81.6104248 134.875426 81.7571686L134.875426 82.208805C134.875426 82.4019289 134.975645 82.4353835 135.11029 82.2821769 135.577721 81.6967223 136.213459 81.4043752 137.016355 81.4043752 137.812749 81.4043752 138.47488 81.6636479 139.003131 82.1890364 139.525645 82.7140446 139.786519 83.4454826 139.786519 84.3765074L139.786519 88.3598793C139.786519 88.5058628 139.712694 88.5792347 139.558541 88.5792347L139.137776 88.5792347C138.990126 88.5792347 138.916301 88.5058628 138.916301 88.3598793L138.916301 84.4369537C138.916301 83.7119785 138.729251 83.1538959 138.361273 82.7741107 137.993295 82.395086 137.51171 82.208805 136.916137 82.208805 136.333951 82.208805 135.845863 82.4019289 135.464115 82.7877967 135.076628 83.1797471 134.882311 83.7119785 134.875426 84.3833504L134.875426 88.3598793C134.875426 88.5058628 134.801984 88.5792347 134.654716 88.5792347L134.226683 88.5792347zM143.756628 88.5792347C143.18171 88.5792347 142.720016 88.4191851 142.365426 88.1002264 142.010454 87.7808876 141.829907 87.335714 141.829907 86.7571025L141.829907 82.5414496C141.829907 82.395086 141.756464 82.3220942 141.609197 82.3220942L140.860235 82.3220942C140.712585 82.3220942 140.639142 82.2491025 140.639142 82.1027388L140.639142 81.7571686C140.639142 81.6104248 140.712585 81.5378132 140.860235 81.5378132L141.609197 81.5378132C141.756464 81.5378132 141.829907 81.4644413 141.829907 81.3176975L141.829907 79.8152843C141.829907 79.6620777 141.903732 79.5894661 142.050617 79.5894661L142.47865 79.5894661C142.626301 79.5894661 142.699743 79.6620777 142.699743 79.8152843L142.699743 81.3176975C142.699743 81.4644413 142.773186 81.5378132 142.920454 81.5378132L144.399251 81.5378132C144.546519 81.5378132 144.619579 81.6104248 144.619579 81.7571686L144.619579 82.1027388C144.619579 82.2491025 144.546519 82.3220942 144.399251 82.3220942L142.920454 82.3220942C142.773186 82.3220942 142.699743 82.395086 142.699743 82.5414496L142.699743 86.663962C142.699743 87.3824744 143.161055 87.8143421 143.850344 87.8143421L144.399251 87.8143421C144.546519 87.8143421 144.619579 87.887714 144.619579 88.0401603L144.619579 88.3598793C144.619579 88.5058628 144.546519 88.5792347 144.399251 88.5792347L143.756628 88.5792347zM145.566492 87.8812512C145.446 87.7877306 145.432612 87.6816645 145.519443 87.5683752L145.766929 87.209119C145.847257 87.0897471 145.954361 87.0764413 146.081738 87.1760446 146.596601 87.5949868 147.365836 87.8941769 148.088787 87.8941769 149.045454 87.8941769 149.654798 87.4220116 149.654798 86.6574992 149.654798 86.4176149 149.58059 86.2051025 149.480372 86.052276 149.37977 85.8994496 149.165563 85.753086 149.012175 85.6671686 148.851519 85.5804909 148.523322 85.4672017 148.343158 85.4071355 148.255945 85.3809041 148.128568 85.3474496 147.961792 85.3010694 147.754087 85.2413835 147.600317 85.1946231 147.506219 85.1680116 147.412885 85.1414 147.272503 85.0946397 147.085454 85.0216479 146.891137 84.9486562 146.750754 84.8885901 146.657421 84.8289041 146.56294 84.7684579 146.449716 84.6893835 146.315836 84.5894 145.947858 84.3038959 145.807475 83.9377967 145.773814 83.3656479 145.773814 82.7672678 146.00753 82.2886397 146.469224 81.9362264 146.930918 81.5845736 147.499716 81.4043752 148.169115 81.4043752 148.898186 81.4043752 149.567585 81.6104248 150.169661 82.0160612 150.296656 82.1027388 150.316546 82.2023421 150.223213 82.3152512L149.961956 82.6478959C149.875126 82.760805 149.774525 82.7741107 149.647148 82.694276 149.165563 82.3620116 148.650699 82.1958793 148.101792 82.1958793 147.67376 82.1958793 147.326055 82.2954826 147.051792 82.4950694 146.777148 82.694276 146.636765 82.9603917 146.636765 83.2930364 146.636765 83.5853835 146.790918 83.8245074 146.964579 83.977714 147.051792 84.051086 147.178787 84.1236975 147.352831 84.1974496 147.519989 84.2704413 147.666874 84.3301273 147.794251 84.3635818 147.914743 84.4034992 148.088787 84.4563421 148.309497 84.5164083 148.363049 84.529714 148.402831 84.5430198 148.429607 84.5491025 148.858022 84.6692347 149.032066 84.7293008 149.419934 84.8954331 149.600481 84.9748876 149.754634 85.0615653 149.875126 85.1615488 150.243104 85.4538959 150.570918 85.9123752 150.54376 86.6046562 150.54376 87.2558793 150.316546 87.767962 149.861738 88.1469868 149.406929 88.5260116 148.804852 88.7122926 148.061628 88.7122926 147.091956 88.7122926 146.181956 88.3598793 145.566492 87.8812512M161.160273 85.2015421C161.327432 85.2015421 161.393989 85.1011785 161.34082 84.9487322L159.31388 79.828286C159.239672 79.6492281 159.099672 79.6492281 159.025847 79.828286L157.00541 84.9487322C156.94459 85.1011785 157.018798 85.2015421 157.179454 85.2015421L161.160273 85.2015421zM154.871366 88.5793107C154.71071 88.5793107 154.643388 88.4793273 154.703825 88.3265008L158.650984 78.5319223C158.698033 78.4186331 158.777978 78.3657901 158.904973 78.3657901L159.433607 78.3657901C159.560601 78.3657901 159.640929 78.4186331 159.687978 78.5319223L163.635137 88.3265008C163.695574 88.4793273 163.635137 88.5793107 163.468361 88.5793107L162.973005 88.5793107C162.852514 88.5793107 162.765301 88.5196248 162.718634 88.3994926L161.869071 86.2652446C161.822022 86.1454926 161.742077 86.0854264 161.614699 86.0854264L156.737268 86.0854264C156.610273 86.0854264 156.530328 86.1454926 156.482896 86.2652446L155.620328 88.3994926C155.573661 88.5196248 155.493333 88.5793107 155.365956 88.5793107L154.871366 88.5793107zM167.432503 88.7121405C166.609333 88.7121405 165.940317 88.4927851 165.425071 88.0540744 164.909825 87.6146033 164.655836 87.0097603 164.655836 86.238405L164.655836 81.7570165C164.655836 81.6102727 164.729661 81.5376612 164.883049 81.5376612L165.285071 81.5376612C165.431956 81.5376612 165.505781 81.6102727 165.505781 81.7570165L165.505781 86.2186364C165.505781 86.7569504 165.686328 87.1629669 166.040536 87.4484711 166.394743 87.7347355 166.863322 87.873876 167.432503 87.873876 168.007421 87.873876 168.476 87.7347355 168.830208 87.4484711 169.18518 87.1629669 169.359224 86.7569504 169.359224 86.2186364L169.359224 81.7570165C169.359224 81.6102727 169.432667 81.5376612 169.579934 81.5376612L169.987694 81.5376612C170.134962 81.5376612 170.209169 81.6102727 170.209169 81.7570165L170.209169 86.238405C170.209169 87.0097603 169.954798 87.6146033 169.439552 88.0540744 168.924306 88.4927851 168.254907 88.7121405 167.432503 88.7121405M174.30918 88.5792347C173.73388 88.5792347 173.272186 88.4191851 172.917596 88.1002264 172.563005 87.7808876 172.382459 87.335714 172.382459 86.7571025L172.382459 82.5414496C172.382459 82.395086 172.308634 82.3220942 172.161749 82.3220942L171.412787 82.3220942C171.265137 82.3220942 171.191694 82.2491025 171.191694 82.1027388L171.191694 81.7571686C171.191694 81.6104248 171.265137 81.5378132 171.412787 81.5378132L172.161749 81.5378132C172.308634 81.5378132 172.382459 81.4644413 172.382459 81.3176975L172.382459 79.8152843C172.382459 79.6620777 172.455902 79.5894661 172.603169 79.5894661L173.031202 79.5894661C173.178852 79.5894661 173.252295 79.6620777 173.252295 79.8152843L173.252295 81.3176975C173.252295 81.4644413 173.325738 81.5378132 173.473005 81.5378132L174.951421 81.5378132C175.098689 81.5378132 175.172131 81.6104248 175.172131 81.7571686L175.172131 82.1027388C175.172131 82.2491025 175.098689 82.3220942 174.951421 82.3220942L173.473005 82.3220942C173.325738 82.3220942 173.252295 82.395086 173.252295 82.5414496L173.252295 86.663962C173.252295 87.3824744 173.713607 87.8143421 174.402896 87.8143421L174.951421 87.8143421C175.098689 87.8143421 175.172131 87.887714 175.172131 88.0401603L175.172131 88.3598793C175.172131 88.5058628 175.098689 88.5792347 174.951421 88.5792347L174.30918 88.5792347zM176.58594 88.5792347C176.43829 88.5792347 176.36523 88.5058628 176.36523 88.3598793L176.36523 78.5850694C176.36523 78.439086 176.43829 78.365714 176.58594 78.365714L176.967306 78.365714C177.120694 78.365714 177.194902 78.439086 177.194902 78.5850694L177.194902 82.208805C177.194902 82.4019289 177.29512 82.4353835 177.429 82.2821769 177.897579 81.6967223 178.532552 81.4043752 179.335448 81.4043752 180.132224 81.4043752 180.793973 81.6636479 181.315721 82.1890364 181.837852 82.7140446 182.099109 83.4454826 182.099109 84.3765074L182.099109 88.3598793C182.099109 88.5058628 182.025284 88.5792347 181.878399 88.5792347L181.503536 88.5792347C181.356268 88.5792347 181.282825 88.5058628 181.282825 88.3598793L181.282825 84.4369537C181.282825 83.7119785 181.088508 83.1538959 180.707142 82.7741107 180.325776 82.395086 179.830803 82.208805 179.235612 82.208805 178.646541 82.208805 178.158454 82.4019289 177.777087 82.7877967 177.395721 83.1797471 177.201022 83.7119785 177.194902 84.3833504L177.194902 88.3598793C177.194902 88.5058628 177.120694 88.5792347 176.967306 88.5792347L176.58594 88.5792347zM189.83759 85.0549124C189.83759 84.2770942 189.562563 83.6186479 189.014421 83.0666479 188.459011 82.5218711 187.79688 82.2489124 187.013874 82.2489124 186.231251 82.2489124 185.568738 82.5218711 185.020213 83.0666479 184.464803 83.6186479 184.190541 84.2770942 184.190541 85.0549124 184.190541 85.8327306 184.464803 86.4980198 185.01371 87.0496397 185.562235 87.6016397 186.231251 87.873838 187.013874 87.873838 188.538956 87.9072926 189.870486 86.5710116 189.83759 85.0549124M184.398246 87.641557C183.735732 86.9903339 183.321087 86.045243 183.321087 85.0549124 183.274038 83.0734909 185.006825 81.3642678 187.013874 81.4041851 187.682891 81.4041851 188.30524 81.5638545 188.873656 81.8900364 189.442454 82.2154579 189.891142 82.6613917 190.218956 83.2198545 190.546388 83.7847802 190.707044 84.3968463 190.707044 85.0549124 190.707044 86.045243 190.292016 86.9903339 189.629885 87.641557 189.302071 87.9673587 188.907317 88.2270116 188.452126 88.4193752 187.101087 89.0314413 185.35453 88.6387306 184.398246 87.641557M192.299639 88.5792347C192.151989 88.5792347 192.078929 88.5058628 192.078929 88.3598793L192.078929 81.7571686C192.078929 81.6104248 192.151989 81.5378132 192.299639 81.5378132L192.727672 81.5378132C192.874557 81.5378132 192.948383 81.6104248 192.948383 81.7571686L192.94188 82.3753174C192.94188 82.5680612 193.048601 82.6148215 193.189366 82.4616149 193.624284 81.8769207 194.366743 81.5305901 195.229694 81.4773669 195.383847 81.4712843 195.463792 81.5378132 195.463792 81.6902595L195.463792 82.0825901C195.463792 82.2224909 195.39035 82.3023256 195.243464 82.3152512 193.825104 82.3684744 192.94188 83.0999124 192.94188 84.6357802L192.94188 88.3598793C192.94188 88.5058628 192.868055 88.5792347 192.721169 88.5792347L192.299639 88.5792347zM196.733661 88.5792347C196.586393 88.5792347 196.513333 88.5058628 196.513333 88.3598793L196.513333 81.7571686C196.513333 81.6104248 196.586393 81.5378132 196.733661 81.5378132L197.162077 81.5378132C197.308962 81.5378132 197.382404 81.6104248 197.382404 81.7571686L197.382404 88.3598793C197.382404 88.5058628 197.308962 88.5792347 197.162077 88.5792347L196.733661 88.5792347zM196.265464 78.9047884C196.265464 78.5318463 196.579891 78.2326562 196.948251 78.2326562 197.315464 78.2326562 197.62377 78.5318463 197.62377 78.9047884 197.62377 79.0838463 197.556448 79.2435157 197.422951 79.3697306 197.041585 79.8088215 196.238306 79.469714 196.265464 78.9047884zM201.571503 88.5792347C200.996202 88.5792347 200.534508 88.4191851 200.179918 88.1002264 199.825328 87.7808876 199.644781 87.335714 199.644781 86.7571025L199.644781 82.5414496C199.644781 82.395086 199.570956 82.3220942 199.424071 82.3220942L198.675109 82.3220942C198.527459 82.3220942 198.454016 82.2491025 198.454016 82.1027388L198.454016 81.7571686C198.454016 81.6104248 198.527459 81.5378132 198.675109 81.5378132L199.424071 81.5378132C199.570956 81.5378132 199.644781 81.4644413 199.644781 81.3176975L199.644781 79.8152843C199.644781 79.6620777 199.718224 79.5894661 199.865492 79.5894661L200.293525 79.5894661C200.441175 79.5894661 200.514617 79.6620777 200.514617 79.8152843L200.514617 81.3176975C200.514617 81.4644413 200.58806 81.5378132 200.735328 81.5378132L202.213743 81.5378132C202.361011 81.5378132 202.434454 81.6104248 202.434454 81.7571686L202.434454 82.1027388C202.434454 82.2491025 202.361011 82.3220942 202.213743 82.3220942L200.735328 82.3220942C200.58806 82.3220942 200.514617 82.395086 200.514617 82.5414496L200.514617 86.663962C200.514617 87.3824744 200.975929 87.8143421 201.665219 87.8143421L202.213743 87.8143421C202.361011 87.8143421 202.434454 87.887714 202.434454 88.0401603L202.434454 88.3598793C202.434454 88.5058628 202.361011 88.5792347 202.213743 88.5792347L201.571503 88.5792347zM204.841918 91.8904364C204.67476 91.8904364 204.607437 91.7839901 204.660989 91.6311636L205.899186 88.5791967C205.938585 88.492519 205.938585 88.3932959 205.899186 88.2929322L203.202847 81.7970479C203.14241 81.6438413 203.215852 81.5377752 203.383393 81.5377752L203.885251 81.5377752C204.012246 81.5377752 204.099459 81.5974612 204.146126 81.7172132L206.313448 87.0627174C206.393776 87.2623041 206.534158 87.2493785 206.601481 87.0562545L208.695361 81.7172132C208.742027 81.5974612 208.822355 81.5377752 208.949732 81.5377752L209.464978 81.5377752C209.625634 81.5377752 209.698694 81.6438413 209.638639 81.7970479L205.564486 91.7109983C205.510552 91.8303702 205.423721 91.8904364 205.310115 91.8904364L204.841918 91.8904364z"/>
  </g>
</svg>
