<svg xmlns="http://www.w3.org/2000/svg" xmlns:xlink="http://www.w3.org/1999/xlink" viewBox="0 0 180 180" fill="none">
  <svg x="10" y="4" width="160" height="172" viewBox="0 0 58 92" preserveAspectRatio="xMidYMid meet">
<defs>
    <polygon id="logo-afca-a" points=".264 .109 36.467 .109 36.467 36.089 .264 36.089"/>
    <polygon id="logo-afca-c" points=".264 .109 17.842 .109 17.842 17.579 .264 17.579"/>
  </defs>
    <g fill="none" fill-rule="evenodd">
    <path fill="#4AC6E8" d="M27.4136448,91.8904364 C25.1644645,91.8904364 22.9156667,91.038486 21.1989454,89.3326843 C17.7666503,85.9218413 17.7666503,80.3908165 21.1993279,76.9795934 L39.8243005,58.4697256 C43.2562131,55.0585025 48.8210219,55.059643 52.2533169,58.4697256 C55.6852295,61.8809488 55.6852295,67.4115934 52.2525519,70.8228165 L33.6279617,89.3326843 C31.912388,91.038486 29.6624426,91.8904364 27.4136448,91.8904364"/>
    <g transform="translate(18.36 .27)">
      <mask id="logo-afca-b" fill="#fff">
        <use xlink:href="#logo-afca-a"/>
      </mask>
      <path fill="#FFDE4F" d="M27.6777705,36.0894711 C25.4285902,36.0894711 23.1790273,35.2367603 21.463071,33.5313388 L2.83809836,15.0207107 C-0.593814208,11.6091074 -0.593814208,6.07922314 2.83809836,2.66761983 C6.27039344,-0.743603306 11.8355847,-0.743603306 15.2678798,2.66761983 L33.8924699,21.1778678 C37.324765,24.5894711 37.324765,30.1197355 33.8924699,33.5313388 C32.1765137,35.2367603 29.9269508,36.0894711 27.6777705,36.0894711" mask="url(#logo-afca-b)"/>
    </g>
    <path fill="#F9A51A" d="M27.4136448,54.8707388 C25.1644645,54.8707388 22.9149016,54.0172678 21.1989454,52.3118463 L2.57397268,33.8019785 C-0.857939891,30.3903752 -0.857939891,24.8604909 2.57397268,21.4485074 C6.00626776,18.0376645 11.571459,18.0376645 15.0033716,21.4485074 L33.6283443,39.9591355 C37.0602568,43.3707388 37.0602568,48.9010033 33.6283443,52.3118463 C31.912388,54.0172678 29.6628251,54.8707388 27.4136448,54.8707388"/>
    <path fill="#FFCE01" d="M46.0384262,36.3601488 C50.8921421,36.3601488 54.8274426,32.4493884 54.8274426,27.6250909 C54.8274426,22.8011736 50.8921421,18.8904132 46.0384262,18.8904132 C41.1847104,18.8904132 37.2494098,22.8011736 37.2494098,27.6250909 C37.2494098,32.4493884 41.1847104,36.3601488 46.0384262,36.3601488"/>
    <path fill="#F48232" d="M27.4136448,54.8707388 C32.2673607,54.8707388 36.2026612,50.9599785 36.2026612,46.135681 C36.2026612,41.3113835 32.2673607,37.4006231 27.4136448,37.4006231 C22.5595464,37.4006231 18.6246284,41.3113835 18.6246284,46.135681 C18.6246284,50.9599785 22.5595464,54.8707388 27.4136448,54.8707388"/>
    <g transform="translate(18.36 .27)">
      <mask id="logo-afca-d" fill="#fff">
        <use xlink:href="#logo-afca-c"/>
      </mask>
      <path fill="#FFE981" d="M9.05298907,17.578881 C13.9067049,17.578881 17.841623,13.6681207 17.841623,8.84420331 C17.841623,4.01990579 13.9067049,0.109145455 9.05298907,0.109145455 C4.19927322,0.109145455 0.263972678,4.01990579 0.263972678,8.84420331 C0.263972678,13.6681207 4.19927322,17.578881 9.05298907,17.578881" mask="url(#logo-afca-d)"/>
    </g>
    <path fill="#FEC10E" d="M8.78890164,36.3599587 C13.6426175,36.3599587 17.5775355,32.4491983 17.5775355,27.625281 C17.5775355,22.8009835 13.6426175,18.8906033 8.78890164,18.8906033 C3.93518579,18.8906033 0.000267759563,22.8009835 0.000267759563,27.625281 C0.000267759563,32.4491983 3.93518579,36.3599587 8.78890164,36.3599587"/>
    <path fill="#00A4D9" d="M46.0384262,73.3804165 C50.8917596,73.3804165 54.8266776,69.4700364 54.8266776,64.646119 C54.8266776,59.8222017 50.8917596,55.9118215 46.0384262,55.9118215 C41.1850929,55.9118215 37.2501749,59.8222017 37.2501749,64.646119 C37.2501749,69.4700364 41.1850929,73.3804165 46.0384262,73.3804165"/>
    <path fill="#89D4ED" d="M27.4136448,91.8904364 C32.2669781,91.8904364 36.2015137,87.9800562 36.2015137,83.156519 C36.2015137,78.3329818 32.2669781,74.4226017 27.4136448,74.4226017 C22.5603115,74.4226017 18.625776,78.3329818 18.625776,83.156519 C18.625776,87.9800562 22.5603115,91.8904364 27.4136448,91.8904364"/>
    </g>
  </svg>
</svg>